<svg width="130" height="29" viewBox="0 0 130 29" fill="none" xmlns="http://www.w3.org/2000/svg">
<g clip-path="url(#clip0_1_32)">
<path d="M120.877 1.3294e-05C122.341 0.0216998 123.579 1.01115 124.582 2.29743C124.79 2.56309 125.247 2.67424 125.458 2.41264C127.414 1.33255e-05 130 0.557086 129.997 3.0917C130.146 8.23548 122.468 15.7417 120.596 9.71559C119.773 7.06576 117.847 5.2712 117.762 3.29501C117.685 1.51401 119.094 -0.0257395 120.878 1.3294e-05H120.877Z" fill="#EA534A"/>
<path d="M0.984002 25.7568C0.984002 23.8823 1.29168 23.4513 2.18218 22.6841C2.91953 22.0701 3.01169 21.4548 3.01169 20.4098V13.0648C3.01169 11.4966 2.91953 11.0059 1.84469 10.9748C0.707499 10.9138 -2.47834e-05 10.4827 -2.47834e-05 9.37673C-0.0311992 7.96304 0.706143 6.85702 1.81351 5.93399C2.6742 5.22647 3.8412 4.73581 4.97839 4.73581C6.51543 4.73581 7.46828 5.56532 7.4981 6.79467C7.4981 7.53202 7.65262 7.65536 7.95894 7.65536C8.38996 7.65536 8.57294 7.13353 8.94296 6.64151C9.68031 5.47451 11.0018 4.49048 12.9685 4.49048C17.1486 4.49048 19.7605 7.90204 19.7605 13.218C19.7605 18.5339 17.4861 22.2233 12.5389 22.2233C9.89582 22.1921 9.83482 20.9628 9.1273 20.9939C8.42113 21.0549 8.42113 21.6079 8.45095 22.3155C8.48212 22.7763 8.63529 23.084 9.37263 23.5136C10.4176 24.0978 10.9097 24.7118 10.9097 26.1865C10.9097 27.6612 10.2333 28.614 7.99011 28.6452C5.00957 28.6452 0.982647 28.2766 0.982647 25.7568H0.984002ZM13.123 13.4335C12.7232 11.3746 11.9859 10.0219 10.3268 10.3296C8.82098 10.6061 8.57429 12.1119 8.82098 13.8943C9.1273 16.414 9.83482 17.1825 11.525 16.967C13.0919 16.8139 13.5229 15.5533 13.123 13.4321V13.4335Z" fill="#F3EEE8"/>
<path d="M40.7842 16.906C40.7842 15.1847 41.1217 13.771 41.1217 11.8965C41.1217 10.9748 40.9686 11.0669 39.8924 11.0358C38.7552 10.9748 38.7552 10.0517 38.7552 8.66923C38.7552 6.36368 39.1862 6.57919 42.2277 4.98116C44.2256 3.90632 45.3316 3.10663 46.7453 3.10663C47.3905 3.10663 47.9435 3.41431 47.9435 4.30481C47.9435 5.53417 48.2498 6.08175 49.6337 6.08175C51.4161 6.08175 52.0924 6.08175 52.0924 7.58761C52.0924 8.4483 52.0003 8.93895 51.9393 10.1385C51.8471 11.8897 50.9552 11.8897 49.1417 11.8897C47.0218 11.8897 47.4515 11.2499 47.3905 13.2478C47.3905 13.893 47.3295 14.5381 47.3295 15.1223C47.3295 16.0752 47.8825 16.5672 48.7432 16.5672C49.5429 16.5672 50.4334 16.3517 51.1097 16.3517C51.6939 16.3517 52.0314 16.6594 52.0002 17.9497C51.9704 20.6849 50.1881 22.6218 46.9608 22.6218C43.3961 22.6218 40.7842 20.4708 40.7842 16.906Z" fill="#F3EEE8"/>
<path d="M53.3543 19.4569C53.3543 18.3509 53.4153 17.6746 54.276 16.9372C54.9523 16.353 55.0445 15.739 55.1367 14.3863C55.1665 13.3413 55.1665 12.2651 55.1665 11.0981C55.1665 9.83758 55.1665 7.71772 55.1367 6.54936C55.1055 5.5965 54.9523 5.41217 54.0917 5.35117C53.1076 5.32 52.4313 4.9825 52.4313 3.78432C52.4313 1.29715 61.7741 -2.44378 61.7741 2.37063C61.7741 3.20014 61.6819 4.55284 61.5274 6.9492C61.3431 9.31575 61.0666 12.8493 61.1899 15.0315C61.2509 15.922 61.3743 16.292 61.9584 16.8139C62.6036 17.3669 62.9411 17.9511 62.9411 19.2726C62.9411 21.547 62.1726 22.4076 58.1159 22.4076C54.52 22.4076 53.353 22.1 53.353 19.4569H53.3543Z" fill="#F3EEE8"/>
<path d="M63.7421 13.7412C63.7421 8.39407 66.5072 4.45932 72.593 4.52167C78.4632 4.58266 81.1673 8.36289 81.1673 13.7412C81.1673 19.1194 78.3697 22.7763 72.4073 22.7763C66.4448 22.7763 63.7408 19.1804 63.7408 13.7412H63.7421ZM74.744 13.1882C73.9145 10.5451 73.1148 9.50008 71.5168 9.9311C70.0421 10.2998 69.6422 11.8666 70.2576 14.4189C70.8716 16.7854 71.9166 17.6149 73.4536 17.2462C75.1127 16.8776 75.4203 15.4639 74.744 13.1895V13.1882Z" fill="#F3EEE8"/>
<path d="M85.9614 19.5179C85.4084 17.7966 84.4244 14.877 83.5637 12.234C83.134 10.8203 82.9185 10.4828 82.3343 10.0219C81.9657 9.71425 81.8125 9.22223 81.8125 7.87089C81.8125 5.47317 82.703 4.92017 86.9441 4.92017C90.6931 4.92017 91.3695 5.65751 91.3695 7.56321C91.3695 8.66923 91.2475 9.19242 90.6931 9.71425C90.2947 10.1141 90.2323 10.4516 90.3868 11.2513C90.6931 12.665 91.093 14.263 91.4318 15.5235C91.6162 16.353 91.6785 16.6607 91.9862 16.6607C92.3847 16.6607 92.4782 16.1999 92.7547 15.3704C93.2156 13.9255 93.2779 13.8022 93.7997 11.8355C94.0762 10.7904 93.8309 10.2374 93.2467 9.68443C92.9404 9.31576 92.6626 8.82374 92.6626 7.65538C92.6626 5.78085 93.1234 4.98116 97.0568 4.98116C99.8544 4.98116 100.1 5.78085 100.1 7.47105C100.1 8.79257 99.7622 9.34558 99.3935 9.7766C98.8703 10.3608 98.7172 10.6373 98.3173 11.7121C97.1503 14.755 96.596 16.3842 95.3978 19.7334C94.6293 21.8235 94.3839 22.3155 92.386 22.3155H89.8975C87.4998 22.3155 86.8546 22.1 85.9641 19.5193L85.9614 19.5179Z" fill="#F3EEE8"/>
<path d="M100.402 14.1098C100.402 9.00806 103.167 4.49048 109.19 4.49048C113.8 4.49048 117.027 7.01018 117.027 12.2353C117.027 14.6628 116.504 15.0315 113.463 15.0315H107.163C106.794 15.0315 106.549 15.1548 106.549 15.5845C106.549 16.5685 108.454 17.2137 110.821 17.2137C111.581 17.2137 112.202 17.1581 112.724 17.07C113.414 16.9535 115.812 16.3544 116.206 17.8562C116.272 18.1083 116.259 18.3739 116.198 18.626C115.561 21.2637 112.805 22.7763 109.193 22.7763C103.938 22.7763 100.405 19.3037 100.405 14.1098H100.402ZM112.09 10.4529C111.919 9.11513 110.727 7.93051 109.193 8.00777C107.235 8.08367 106.425 9.3076 106.553 11.1794C106.596 11.9059 106.936 12.0198 107.66 12.0198C111.706 12.0198 112.218 11.4844 112.09 10.4529Z" fill="#F3EEE8"/>
<path d="M21.1118 14.3551C21.1118 9.25339 23.8769 4.73581 29.9003 4.73581C34.51 4.73581 37.7373 7.25552 37.7373 12.4806C37.7373 14.9082 37.2141 15.2768 34.1725 15.2768H27.8726C27.5039 15.2768 27.2586 15.4002 27.2586 15.8298C27.2586 16.8139 29.1643 17.459 31.5308 17.459C32.2912 17.459 32.912 17.4035 33.4338 17.3154C34.1237 17.1988 36.5215 16.5997 36.9159 18.1015C36.9823 18.3536 36.9687 18.6193 36.9078 18.8714C36.2707 21.509 33.5152 23.0216 29.903 23.0216C24.6481 23.0216 21.1145 19.5491 21.1145 14.3551H21.1118ZM32.7995 10.6983C32.6287 9.36047 31.4373 8.17584 29.903 8.2531C27.9444 8.329 27.1353 9.55293 27.2627 11.4248C27.306 12.1513 27.6462 12.2651 28.37 12.2651C32.4159 12.2651 32.9283 11.7297 32.7995 10.6983Z" fill="#F3EEE8"/>
</g>
<defs>
<clipPath id="clip0_1_32">
<rect width="130" height="28.6466" fill="white"/>
</clipPath>
</defs>
</svg>
